<mxfile host="app.diagrams.net" agent="Mozilla/5.0 (Windows NT 10.0; Win64; x64) AppleWebKit/537.36 (KHTML, like Gecko) Chrome/132.0.0.0 Safari/537.36" version="26.0.5">
  <diagram name="Page-1" id="AbNz_W9-ifHMb_iF9P_d">
    <mxGraphModel dx="1434" dy="746" grid="1" gridSize="10" guides="1" tooltips="1" connect="1" arrows="1" fold="1" page="1" pageScale="1" pageWidth="850" pageHeight="1100" math="0" shadow="0">
      <root>
        <mxCell id="0" />
        <mxCell id="1" parent="0" />
        <mxCell id="yzvRuwMVm8w7b3mzwm1n-1" value="" style="shape=mxgraph.cisco.security.router_firewall;sketch=0;html=1;pointerEvents=1;dashed=0;fillColor=#036897;strokeColor=#ffffff;strokeWidth=2;verticalLabelPosition=bottom;verticalAlign=top;align=center;outlineConnect=0;" parent="1" vertex="1">
          <mxGeometry x="387.06" y="358" width="78" height="62" as="geometry" />
        </mxCell>
        <mxCell id="yzvRuwMVm8w7b3mzwm1n-10" value="DMZ" style="swimlane;whiteSpace=wrap;html=1;" parent="1" vertex="1">
          <mxGeometry x="277" width="297" height="290" as="geometry" />
        </mxCell>
        <mxCell id="yzvRuwMVm8w7b3mzwm1n-9" value="" style="group" parent="yzvRuwMVm8w7b3mzwm1n-10" vertex="1" connectable="0">
          <mxGeometry x="79" y="40" width="162.06" height="220" as="geometry" />
        </mxCell>
        <mxCell id="yzvRuwMVm8w7b3mzwm1n-4" value="" style="image;aspect=fixed;perimeter=ellipsePerimeter;html=1;align=center;shadow=0;dashed=0;spacingTop=3;image=img/lib/active_directory/internet_cloud.svg;labelBackgroundColor=none;container=0;" parent="yzvRuwMVm8w7b3mzwm1n-9" vertex="1">
          <mxGeometry x="12.787948879488795" width="114.54639175257734" height="72.16494845360826" as="geometry" />
        </mxCell>
        <mxCell id="yzvRuwMVm8w7b3mzwm1n-5" value="" style="endArrow=none;html=1;rounded=0;entryX=0.5;entryY=1;entryDx=0;entryDy=0;labelBackgroundColor=none;" parent="yzvRuwMVm8w7b3mzwm1n-9" target="yzvRuwMVm8w7b3mzwm1n-4" edge="1">
          <mxGeometry width="50" height="50" relative="1" as="geometry">
            <mxPoint x="70.05814636594073" y="147.42268041237116" as="sourcePoint" />
            <mxPoint x="101.3320133201332" y="260.8247422680413" as="targetPoint" />
          </mxGeometry>
        </mxCell>
        <mxCell id="yzvRuwMVm8w7b3mzwm1n-12" value="" style="shape=mxgraph.cisco.switches.layer_3_switch;sketch=0;html=1;pointerEvents=1;dashed=0;fillColor=#036897;strokeColor=#ffffff;strokeWidth=2;verticalLabelPosition=bottom;verticalAlign=top;align=center;outlineConnect=0;" parent="yzvRuwMVm8w7b3mzwm1n-9" vertex="1">
          <mxGeometry x="38.06" y="150" width="64" height="64" as="geometry" />
        </mxCell>
        <mxCell id="yzvRuwMVm8w7b3mzwm1n-29" value="10.40.0.132" style="text;html=1;align=center;verticalAlign=middle;whiteSpace=wrap;rounded=0;" parent="yzvRuwMVm8w7b3mzwm1n-9" vertex="1">
          <mxGeometry x="102.06" y="150" width="60" height="30" as="geometry" />
        </mxCell>
        <mxCell id="yzvRuwMVm8w7b3mzwm1n-13" value="" style="endArrow=none;html=1;rounded=0;entryX=0.5;entryY=1;entryDx=0;entryDy=0;entryPerimeter=0;exitX=0.5;exitY=0;exitDx=0;exitDy=0;exitPerimeter=0;" parent="1" source="yzvRuwMVm8w7b3mzwm1n-1" target="yzvRuwMVm8w7b3mzwm1n-12" edge="1">
          <mxGeometry width="50" height="50" relative="1" as="geometry">
            <mxPoint x="410" y="370" as="sourcePoint" />
            <mxPoint x="460" y="320" as="targetPoint" />
          </mxGeometry>
        </mxCell>
        <mxCell id="yzvRuwMVm8w7b3mzwm1n-16" value="Existing Management Solution --&lt;div&gt;L3 VLAN 740&lt;/div&gt;" style="text;html=1;align=center;verticalAlign=middle;whiteSpace=wrap;rounded=0;" parent="1" vertex="1">
          <mxGeometry x="720" y="390" width="90" height="30" as="geometry" />
        </mxCell>
        <mxCell id="yzvRuwMVm8w7b3mzwm1n-17" value="" style="endArrow=none;html=1;rounded=0;entryX=0.5;entryY=1;entryDx=0;entryDy=0;entryPerimeter=0;exitX=0.5;exitY=0;exitDx=0;exitDy=0;exitPerimeter=0;" parent="1" source="yzvRuwMVm8w7b3mzwm1n-23" target="yzvRuwMVm8w7b3mzwm1n-1" edge="1">
          <mxGeometry width="50" height="50" relative="1" as="geometry">
            <mxPoint x="425" y="450" as="sourcePoint" />
            <mxPoint x="460" y="520" as="targetPoint" />
          </mxGeometry>
        </mxCell>
        <mxCell id="yzvRuwMVm8w7b3mzwm1n-19" value="Internal" style="swimlane;whiteSpace=wrap;html=1;" parent="1" vertex="1">
          <mxGeometry x="277" y="520" width="297" height="290" as="geometry" />
        </mxCell>
        <mxCell id="yzvRuwMVm8w7b3mzwm1n-20" value="" style="group;direction=west;flipV=1;" parent="yzvRuwMVm8w7b3mzwm1n-19" vertex="1" connectable="0">
          <mxGeometry x="79" y="40" width="154" height="220" as="geometry" />
        </mxCell>
        <mxCell id="yzvRuwMVm8w7b3mzwm1n-22" value="" style="endArrow=none;html=1;rounded=0;entryX=0.5;entryY=1;entryDx=0;entryDy=0;labelBackgroundColor=none;" parent="yzvRuwMVm8w7b3mzwm1n-20" target="yzvRuwMVm8w7b3mzwm1n-21" edge="1">
          <mxGeometry width="50" height="50" relative="1" as="geometry">
            <mxPoint x="70.05814636594073" y="72.57731958762884" as="sourcePoint" />
            <mxPoint x="101.3320133201332" y="-40.82474226804129" as="targetPoint" />
          </mxGeometry>
        </mxCell>
        <mxCell id="yzvRuwMVm8w7b3mzwm1n-21" value="" style="image;aspect=fixed;perimeter=ellipsePerimeter;html=1;align=center;shadow=0;dashed=0;spacingTop=3;image=img/lib/active_directory/internet_cloud.svg;labelBackgroundColor=none;container=0;" parent="yzvRuwMVm8w7b3mzwm1n-20" vertex="1">
          <mxGeometry x="12.787948879488795" y="147.83505154639175" width="114.54639175257734" height="72.16494845360826" as="geometry" />
        </mxCell>
        <mxCell id="yzvRuwMVm8w7b3mzwm1n-23" value="" style="shape=mxgraph.cisco.switches.layer_3_switch;sketch=0;html=1;pointerEvents=1;dashed=0;fillColor=#036897;strokeColor=#ffffff;strokeWidth=2;verticalLabelPosition=bottom;verticalAlign=top;align=center;outlineConnect=0;" parent="yzvRuwMVm8w7b3mzwm1n-20" vertex="1">
          <mxGeometry x="38.06" y="6" width="64" height="64" as="geometry" />
        </mxCell>
        <mxCell id="yzvRuwMVm8w7b3mzwm1n-28" value="10.40.0.130" style="text;html=1;align=center;verticalAlign=middle;whiteSpace=wrap;rounded=0;" parent="yzvRuwMVm8w7b3mzwm1n-20" vertex="1">
          <mxGeometry x="102.06" y="40" width="60" height="30" as="geometry" />
        </mxCell>
        <mxCell id="yzvRuwMVm8w7b3mzwm1n-24" value="" style="curved=1;endArrow=classic;html=1;rounded=0;entryX=1;entryY=0.5;entryDx=0;entryDy=0;entryPerimeter=0;exitX=1;exitY=0.5;exitDx=0;exitDy=0;exitPerimeter=0;strokeColor=#FF0505;" parent="1" source="yzvRuwMVm8w7b3mzwm1n-23" target="yzvRuwMVm8w7b3mzwm1n-12" edge="1">
          <mxGeometry width="50" height="50" relative="1" as="geometry">
            <mxPoint x="457" y="470" as="sourcePoint" />
            <mxPoint x="458" y="222" as="targetPoint" />
            <Array as="points">
              <mxPoint x="660" y="620" />
              <mxPoint x="760" y="280" />
            </Array>
          </mxGeometry>
        </mxCell>
        <mxCell id="yzvRuwMVm8w7b3mzwm1n-25" value="ae1.740 10.40.0.1 --&lt;div&gt;mgmt gw&lt;/div&gt;" style="text;html=1;align=center;verticalAlign=middle;whiteSpace=wrap;rounded=0;" parent="1" vertex="1">
          <mxGeometry x="435" y="420" width="75" height="30" as="geometry" />
        </mxCell>
        <mxCell id="yzvRuwMVm8w7b3mzwm1n-26" value="" style="endArrow=none;html=1;rounded=0;entryX=0;entryY=0.5;entryDx=0;entryDy=0;entryPerimeter=0;" parent="1" target="yzvRuwMVm8w7b3mzwm1n-1" edge="1">
          <mxGeometry width="50" height="50" relative="1" as="geometry">
            <mxPoint x="320" y="389" as="sourcePoint" />
            <mxPoint x="460" y="350" as="targetPoint" />
          </mxGeometry>
        </mxCell>
        <mxCell id="yzvRuwMVm8w7b3mzwm1n-27" value="Lo1&lt;div&gt;10.40.0.253 -- mgmt address&lt;/div&gt;" style="text;html=1;align=center;verticalAlign=middle;whiteSpace=wrap;rounded=0;" parent="1" vertex="1">
          <mxGeometry x="260" y="374" width="60" height="30" as="geometry" />
        </mxCell>
      </root>
    </mxGraphModel>
  </diagram>
</mxfile>
